<svg width="365" height="90" viewBox="0 0 365 90" fill="none" xmlns="http://www.w3.org/2000/svg">
<path d="M52.5 81C72.6584 81 89 64.6584 89 44.5C89 24.3416 72.6584 8 52.5 8C32.3416 8 16 24.3416 16 44.5C16 64.6584 32.3416 81 52.5 81Z" fill="#0066B7"/>
<path fill-rule="evenodd" clip-rule="evenodd" d="M40.4861 40.2312C40.2796 45.3968 38.621 42.6834 37.201 42.849C41.6592 46.3157 41.8846 40.7693 42.0352 37.5614C42.2289 38.7411 43.778 40.9141 45.779 41.2246C47.3797 41.4729 49.286 39.9207 50.0391 39.1136L48.9418 41.8454C48.8494 42.0897 48.7534 42.333 48.6544 42.5746C48.5952 42.5562 48.5401 42.5408 48.4899 42.5284C46.3212 41.9324 44.7462 44.8049 44.2298 46.3157C43.6489 47.9093 42.9905 51.0468 45.0044 50.8481C47.0183 50.6494 49.2 46.295 50.0391 44.1427L50.2345 43.653C50.7844 44.0463 51.2254 44.4852 51.4591 44.7635C51.1589 44.2246 50.7456 43.7925 50.3132 43.4558L52.8146 37.1889L55.3319 29.9247C55.504 29.5728 55.6546 28.7947 54.8801 28.4967C54.1055 28.1986 53.6537 28.6208 53.5246 28.8692L50.6845 34.457C48.7739 38.4306 46.8332 39.424 46.1017 39.424C45.1722 39.424 44.4665 38.1823 44.2298 37.5614C43.6102 35.4256 42.7237 34.1052 42.358 33.712C41.1187 33.0166 40.7658 33.919 40.7443 34.457L40.4861 40.2312ZM48.4899 42.8388C48.5068 42.8421 48.5236 42.8455 48.5404 42.849C47.323 45.7397 45.7186 48.3368 45.0044 49.358V49.1717V47.6196C45.1593 43.497 47.3926 42.7147 48.4899 42.8388Z" fill="white"/>
<path d="M60.133 54.0797C59.7628 54.0797 59.4468 53.9842 59.185 53.7931C58.9141 53.6021 58.7787 53.3459 58.7787 53.0245C58.7787 52.7727 58.8599 52.5555 59.0224 52.3732C59.1759 52.1995 59.3701 52.1126 59.6048 52.1126C59.7132 52.1126 59.7899 52.13 59.8351 52.1647C59.8802 52.1995 59.9163 52.2385 59.9434 52.282C60.0156 52.3949 60.0969 52.4904 60.1872 52.5686C60.2865 52.6554 60.4174 52.6988 60.5799 52.6988C60.7966 52.6988 61.0043 52.625 61.2029 52.4774C61.4106 52.3297 61.6002 52.1604 61.7718 51.9693C61.9253 51.8043 62.1104 51.5655 62.3271 51.2528C62.5438 50.9488 62.7605 50.6014 62.9771 50.2106C62.7785 50.3756 62.5934 50.4929 62.4219 50.5623C62.2503 50.6405 62.0878 50.6796 61.9343 50.6796C61.7447 50.6796 61.5596 50.6145 61.379 50.4842C61.1984 50.3452 61.0856 50.089 61.0404 49.7156C61.0133 49.429 60.9592 49.112 60.8779 48.7646C60.8057 48.4172 60.7109 48.0828 60.5935 47.7614C60.4851 47.4314 60.3497 47.1535 60.1872 46.9277C60.124 46.8235 60.0517 46.7453 59.9705 46.6932C59.8892 46.6411 59.7718 46.6063 59.6184 46.589C59.51 46.5803 59.4378 46.5499 59.4017 46.4978C59.3746 46.4457 59.361 46.3632 59.361 46.2503C59.361 45.9376 59.4513 45.6857 59.6319 45.4947C59.8125 45.3036 60.0563 45.2081 60.3632 45.2081C60.7334 45.2081 60.9998 45.347 61.1623 45.6249C61.3248 45.8942 61.4648 46.2242 61.5822 46.615C61.6273 46.7714 61.6725 46.9798 61.7176 47.2403C61.7718 47.4922 61.8169 47.7658 61.853 48.0611C61.8982 48.3564 61.9298 48.6386 61.9478 48.9079C61.9569 49.0989 62.0697 49.1945 62.2864 49.1945C62.5754 49.1945 62.8507 49.1076 63.1126 48.9339C63.3744 48.7602 63.5866 48.5344 63.7491 48.2565C63.9207 47.9786 64.0065 47.6876 64.0065 47.3836C64.0065 47.2099 63.9839 47.0536 63.9387 46.9147C63.8936 46.7757 63.8168 46.6541 63.7085 46.5499C63.6182 46.4457 63.546 46.3632 63.4918 46.3024C63.4376 46.2329 63.4105 46.1547 63.4105 46.0679C63.4105 45.9202 63.4828 45.7813 63.6272 45.651C63.7717 45.5207 63.9433 45.4122 64.1419 45.3253C64.3496 45.2385 64.5301 45.195 64.6836 45.195C64.9545 45.195 65.1351 45.321 65.2254 45.5728C65.3157 45.816 65.3382 46.0852 65.2931 46.3805C65.2389 46.7887 65.1306 47.2707 64.968 47.8266C64.8055 48.3824 64.5933 48.9643 64.3315 49.5723C64.0787 50.1802 63.7852 50.7664 63.4512 51.331C63.1261 51.9042 62.7785 52.4036 62.4083 52.8291C62.0923 53.2026 61.7402 53.5022 61.3519 53.728C60.9637 53.9625 60.5574 54.0797 60.133 54.0797Z" fill="white"/>
<path d="M55.7786 50.6275C55.6341 50.6275 55.5167 50.6014 55.4264 50.5493C55.3452 50.5059 55.3181 50.4277 55.3452 50.3148C55.4445 49.9414 55.5258 49.5636 55.589 49.1815C55.6612 48.7906 55.6973 48.4172 55.6973 48.0611C55.6973 47.6008 55.6657 47.2664 55.6025 47.058C55.5483 46.8409 55.4716 46.6932 55.3723 46.615C55.273 46.5282 55.1511 46.4631 55.0066 46.4196C54.9434 46.3936 54.8847 46.3588 54.8305 46.3154C54.7854 46.272 54.7628 46.2112 54.7628 46.133C54.7628 46.0114 54.8125 45.8768 54.9118 45.7292C55.0111 45.5815 55.1511 45.4556 55.3316 45.3514C55.5122 45.2385 55.7199 45.182 55.9546 45.182C56.2616 45.182 56.4738 45.2862 56.5912 45.4947C56.7176 45.6944 56.7808 45.9593 56.7808 46.2894C56.9433 45.942 57.142 45.6684 57.3767 45.4686C57.6205 45.2602 57.923 45.156 58.2841 45.156C58.5279 45.156 58.7311 45.2081 58.8936 45.3123C59.0561 45.4165 59.1374 45.5859 59.1374 45.8204C59.1374 46.0549 59.0561 46.2763 58.8936 46.4848C58.7401 46.6845 58.5821 46.7844 58.4196 46.7844C58.3925 46.7844 58.3609 46.7801 58.3248 46.7714C58.2886 46.7627 58.257 46.741 58.23 46.7062C58.1126 46.5673 57.9681 46.4978 57.7966 46.4978C57.5347 46.4978 57.3045 46.6628 57.1058 46.9928C56.9072 47.3229 56.7989 47.7788 56.7808 48.3607C56.7898 48.5778 56.7943 48.7993 56.7943 49.0251C56.8034 49.2509 56.8079 49.4159 56.8079 49.5202C56.8079 49.8415 56.7131 50.1064 56.5235 50.3148C56.3429 50.5233 56.0946 50.6275 55.7786 50.6275Z" fill="white"/>
<path d="M52.7442 44.0097C52.4914 44.001 52.2882 43.9272 52.1347 43.7882C51.9812 43.6493 51.9045 43.4539 51.9045 43.202C51.9135 42.9328 52.0083 42.7156 52.1889 42.5506C52.3695 42.3769 52.5997 42.2944 52.8796 42.3031C53.1415 42.3118 53.3446 42.3856 53.4891 42.5246C53.6426 42.6635 53.7148 42.8589 53.7058 43.1108C53.6967 43.3714 53.6064 43.5885 53.4349 43.7622C53.2633 43.9272 53.0331 44.0097 52.7442 44.0097ZM52.7577 50.6146C52.4869 50.6146 52.2747 50.5451 52.1212 50.4062C51.9677 50.2585 51.8909 50.011 51.8909 49.6636C51.8909 49.4638 51.909 49.2684 51.9451 49.0774C51.9903 48.8863 52.0399 48.6996 52.0941 48.5172C52.1573 48.3261 52.207 48.1307 52.2431 47.931C52.2882 47.7312 52.3108 47.5184 52.3108 47.2926C52.3108 47.1363 52.2882 46.9886 52.2431 46.8497C52.1979 46.702 52.0986 46.5935 51.9451 46.524C51.8277 46.4632 51.7239 46.4024 51.6336 46.3416C51.5523 46.2721 51.5117 46.1853 51.5117 46.0811C51.5117 45.9595 51.5704 45.8292 51.6878 45.6902C51.8052 45.5513 51.9587 45.434 52.1483 45.3385C52.3469 45.2343 52.5501 45.1822 52.7577 45.1822C52.9834 45.1822 53.146 45.2386 53.2453 45.3515C53.3536 45.4644 53.4259 45.6077 53.462 45.7814C53.4981 45.9551 53.5162 46.1332 53.5162 46.3156C53.5162 46.5935 53.4936 46.867 53.4484 47.1363C53.4033 47.3968 53.3582 47.64 53.313 47.8658C53.2769 48.0308 53.2498 48.1828 53.2317 48.3218C53.2137 48.4607 53.2047 48.591 53.2047 48.7126C53.2047 48.9297 53.2588 49.0947 53.3672 49.2076C53.4755 49.3119 53.629 49.4117 53.8277 49.5073C53.9089 49.5507 53.9496 49.6158 53.9496 49.7027C53.9496 49.7722 53.9134 49.8807 53.8412 50.0284C53.769 50.176 53.6426 50.3106 53.462 50.4322C53.2904 50.5538 53.0557 50.6146 52.7577 50.6146Z" fill="white"/>
<path d="M37.0608 50.9141C36.7267 50.9141 36.4198 50.8837 36.1399 50.8229C35.86 50.7621 35.6297 50.6492 35.4491 50.4842C35.3137 50.3626 35.2234 50.228 35.1783 50.0803C35.1331 49.924 35.1105 49.7547 35.1105 49.5723C35.1105 49.277 35.1376 48.9817 35.1918 48.6864C35.2731 48.174 35.3453 47.6225 35.4085 47.0319C35.4717 46.4413 35.5033 45.8942 35.5033 45.3905C35.5033 45.2341 35.4943 45.0561 35.4762 44.8563C35.4672 44.6566 35.4491 44.4699 35.4221 44.2962C35.3588 44.3222 35.2956 44.3483 35.2324 44.3743C35.1783 44.3917 35.1286 44.4004 35.0835 44.4004C35.0022 44.4004 34.948 44.3613 34.9209 44.2831C34.8939 44.205 34.8803 44.1181 34.8803 44.0226C34.8803 43.7707 34.939 43.5579 35.0564 43.3842C35.1828 43.2019 35.3859 43.0412 35.6658 42.9022C35.9638 42.7459 36.352 42.6113 36.8306 42.4984C37.3181 42.3768 37.8102 42.316 38.3068 42.316C39.4354 42.316 40.3203 42.6373 40.9613 43.28C41.6114 43.914 41.9365 44.8173 41.9365 45.9897C41.9365 46.6585 41.8281 47.2925 41.6114 47.8917C41.4038 48.4823 41.0923 49.0077 40.6769 49.468C40.2616 49.9197 39.7515 50.2757 39.1465 50.5363C38.5416 50.7882 37.8463 50.9141 37.0608 50.9141ZM37.4942 49.455C37.9005 49.455 38.3068 49.3942 38.7131 49.2726C39.1194 49.151 39.4851 48.9687 39.8101 48.7255C40.1442 48.4823 40.4106 48.174 40.6092 47.8005C40.8079 47.4184 40.9072 46.9624 40.9072 46.4327C40.9072 45.8334 40.7853 45.3384 40.5415 44.9475C40.2977 44.5567 39.9727 44.2658 39.5664 44.0747C39.1601 43.8836 38.7086 43.7881 38.212 43.7881C37.9411 43.7881 37.6703 43.8098 37.3994 43.8532C37.1376 43.8966 36.9299 43.9401 36.7764 43.9835C36.7674 44.383 36.7403 44.7738 36.6951 45.156C36.659 45.5294 36.6139 45.8942 36.5597 46.2503C36.5055 46.6237 36.4604 46.9885 36.4243 47.3446C36.3972 47.7007 36.3836 48.0524 36.3836 48.3998C36.3836 48.834 36.4739 49.1207 36.6545 49.2596C36.8441 49.3899 37.124 49.455 37.4942 49.455Z" fill="white"/>
<path d="M60.3456 21.4599C60.6548 21.6644 60.9598 21.8944 61.2569 22.1473C73.309 31.423 78.3217 42.7629 77.2645 51.1102C76.7228 53.5073 74.601 55.1487 73.6078 55.6698C71.7659 63.3821 67.6938 67.2208 65.888 68.1762C61.7707 70.8859 59.8385 69.3052 59.3871 68.1762C59.4322 65.8312 58.6557 62.0272 55.1886 65.5707C51.7215 69.1141 46.8819 70 44.8955 70C34.7108 69.3747 34.151 65.4838 35.1442 63.6166C36.3631 62.8783 38.2321 61.1413 35.9568 60.0992C33.6815 59.057 30.2234 56.1909 28.7787 54.8882C26.4763 53.1946 29.7268 48.2442 32.7064 51.7616C35.09 54.5755 38.8461 56.8423 40.4262 57.6239C42.864 58.7964 48.8231 59.1872 47.0625 56.0606C45.654 53.5594 48.1911 53.8894 49.6358 54.3671C57.6535 57.5979 63.8113 55.4527 65.888 53.9763C69.5447 50.9799 68.4612 47.5928 66.2943 46.0295C64.5607 44.7789 66.1137 42.3818 67.1069 41.3396C68.7321 37.4314 66.4297 35.7379 64.3982 36.1287C62.773 36.4413 62.9987 35.3905 63.3147 34.8259C66.6831 30.1564 64.4287 24.848 61.2569 22.1473C60.9574 21.9169 60.6537 21.6877 60.3456 21.4599Z" fill="#84C0EF"/>
<path d="M63.6942 33.5485C67.378 28.4418 61.0758 22.3884 57.4642 20C76.2084 23.335 78.7275 41.2781 77.644 49.8328C77.1023 52.2299 74.9805 53.8713 73.9873 54.3924C72.1454 62.1047 68.0733 65.9434 66.2675 66.8988C62.1502 69.6085 60.218 68.0278 59.7666 66.8988C59.8117 64.5538 59.0352 60.7498 55.5681 64.2933C52.101 67.8367 47.2614 68.7226 45.275 68.7226C35.0903 68.0973 34.5305 64.2064 35.5237 62.3392C36.7426 61.6009 38.6116 59.8639 36.3363 58.8218C34.061 57.7796 30.6029 54.9135 29.1582 53.6108C26.8558 51.9172 30.1063 46.9668 33.0859 50.4842C35.4695 53.2981 39.2256 55.5649 40.8057 56.3465C43.2435 57.519 49.2026 57.9098 47.442 54.7832C46.0335 52.282 48.5706 52.612 50.0153 53.0897C58.033 56.3205 64.1908 54.1753 66.2675 52.6989C69.9242 49.7025 68.8407 46.3154 66.6738 44.7521C64.9402 43.5015 66.4932 41.1044 67.4864 40.0622C69.1116 36.154 66.8092 34.4605 64.7777 34.8513C63.1525 35.1639 63.3782 34.1131 63.6942 33.5485Z" fill="white"/>
<path d="M53.5146 66.101C51.902 67.1959 48.0778 69.4951 42.6141 68.4732C41.9185 67.135 39.9582 62.9115 37.6817 62.1816C37.4287 62.1512 36.9418 61.9444 37.0177 61.3604C37.1125 60.6305 38.9148 59.9918 40.053 62.1816C40.1479 62.2728 40.3945 62.3823 40.6222 62.0903C40.9067 61.7254 41.9502 61.8166 42.6141 63.5502C43.1453 64.937 43.9737 65.4054 44.3215 65.4662C43.8156 64.6147 42.7659 62.7108 42.6141 61.9079C42.3612 61.4516 41.4569 60.4662 39.8633 60.1743C38.2698 59.8823 37.9346 59.0186 37.9662 58.6232C37.9662 58.2278 38.3836 57.4735 40.053 57.6195C41.7225 57.7655 42.8355 59.9918 43.1833 61.0867C43.3414 62.212 43.9042 64.6086 44.8907 65.1925L46.4083 64.1889C46.6613 63.976 47.3 63.6597 47.8312 64.0976C48.4952 64.6451 50.2026 65.01 51.0563 63.9151C51.246 62.6986 52.0048 59.9371 53.5225 58.6232V56.7984C53.7122 56.5551 54.2434 56.1414 54.8505 56.4334C54.7872 55.9468 54.9833 54.9918 56.2733 55.0648C57.5633 55.1378 56.1784 56.7984 55.3247 57.6195C54.471 58.8361 52.9075 62.2324 53.5146 66.101C53.6094 64.3066 54.8125 60.7035 57.6961 60.6305C58.202 60.6305 59.2518 60.9225 59.4035 62.0903C59.4035 62.5161 59.0241 63.3495 57.5064 63.2765C56.5895 63.3981 53.894 63.9842 53.5146 66.101Z" fill="#0066B7"/>
<path d="M73.1157 51.3084C73.3161 49.1086 71.9681 47.535 71.2691 47.0232C70.8517 47.0232 70.1006 46.3273 69.7771 45.9794C69.4266 45.6182 68.8729 45.5345 68.6399 45.5379C68.3478 45.5379 68.1078 45.3305 68.0243 45.2268C68.0577 45.1706 68.0104 45.016 67.9826 44.9458C67.9325 44.8093 67.9339 44.628 67.9409 44.5544C67.9743 44.3296 68.2121 44.2868 68.3269 44.2935C68.6858 44.2854 69.1164 43.8552 69.2868 43.6411C69.679 43.1353 70.1875 42.9754 70.3927 42.9587H70.5909C70.8497 42.9667 71.0604 43.1226 71.1334 43.1996C71.1585 43.2237 71.2204 43.2096 71.2482 43.1996C71.6071 43.031 72.2115 43.0624 72.4689 43.0992C72.4522 43.1715 72.3506 43.3367 72.302 43.4103C72.3854 43.4672 72.7109 43.5127 73.3453 43.2397C73.9796 42.9667 74.5555 43.0122 74.7642 43.0691C77.2514 44.2379 77.9831 43.0767 77.9997 42.4755V42.434C78.0001 42.4475 78.0001 42.4613 77.9997 42.4755V44.8063L77.9048 46.8316L77.8204 48.7004V49.6425L77.5669 50.1629C77.6233 49.8379 77.2515 49.4217 76.4752 49.1808C75.699 48.94 75.4145 49.3882 75.3693 49.6425V51.0876C75.3345 51.1913 75.2233 51.4047 75.0563 51.4288C74.8894 51.4529 74.792 51.2515 74.7642 51.1478L74.4512 49.9235C74.4547 49.8632 74.4136 49.7408 74.2217 49.7328C74.0297 49.7248 73.9608 49.8566 73.9504 49.9235L73.7626 51.0876C73.4955 51.497 73.2201 51.4054 73.1157 51.3084Z" fill="#0066B7"/>
<path d="M350.047 72.7038H349.3L343.323 69.5196L343.621 38.4121H337.046L334.506 34.4318V33.8195H344.144C343.796 31.0843 343.049 28.9002 341.903 27.2673C340.757 25.6343 339.362 24.4505 337.719 23.7156C336.125 22.9808 334.456 22.6134 332.712 22.6134C330.421 22.6134 328.653 23.1237 327.407 24.1443C326.162 25.1241 325.539 26.3896 325.539 27.9409C325.539 29.0023 325.888 30.1657 326.586 31.4313L324.344 32.4723C323.099 31.4109 322.177 30.2882 321.579 29.1043C320.932 27.8796 320.608 26.6753 320.608 25.4915C320.608 23.4503 321.48 21.6745 323.223 20.164C324.967 18.6535 327.457 17.8983 330.695 17.8983C333.534 17.8983 336.174 18.5515 338.615 19.8578C341.106 21.1233 343.248 22.9604 345.041 25.369C346.884 27.7368 348.229 30.5536 349.076 33.8195H356.1L358.64 37.7997V38.4121H349.898L350.047 72.7038Z" fill="white"/>
<path d="M331.251 73.01H330.504L315.71 58.1298C313.867 56.2928 312.547 54.8027 311.75 53.6597C311.002 52.4758 310.629 51.5368 310.629 50.8428C310.629 49.5365 311.899 48.8833 314.44 48.8833C315.187 48.8833 316.208 48.9241 317.503 49.0058C318.798 49.0874 319.894 49.1691 320.791 49.2507C321.04 48.2301 321.189 47.0667 321.239 45.7603C321.339 44.4131 321.388 43.2497 321.388 42.2699C321.388 41.4126 321.363 40.6778 321.314 40.0654C321.314 39.4531 321.289 38.902 321.239 38.4121H307.64L305.1 34.4318V33.8195H336.183L338.723 37.7997V38.4121H327.441C327.49 39.1877 327.54 40.045 327.59 40.984C327.64 41.9229 327.665 42.5761 327.665 42.9435C327.665 46.291 327.366 48.9446 326.768 50.9041C326.17 52.8636 325.249 54.3333 324.004 55.313C322.808 56.2928 321.314 56.946 319.52 57.2725L335.062 70.4381L331.251 73.01Z" fill="white"/>
<path d="M285.297 63.4573C282.358 63.4573 279.568 62.8245 276.928 61.559C274.338 60.2527 272.121 58.5177 270.278 56.354C268.485 54.1904 267.289 51.7614 266.692 49.067C270.577 48.2914 273.416 47.4545 275.21 46.5564C277.053 45.6174 277.974 44.454 277.974 43.066C277.974 42.5353 277.8 41.8617 277.451 41.0452C277.152 40.2287 276.604 39.351 275.807 38.4121H264.151L261.611 34.4318V33.8195H306.741L309.282 37.7997V38.4121H300.539L300.689 72.3976H299.942L293.964 69.2134L294.039 61.2528C292.544 62.0693 291.05 62.6408 289.556 62.9674C288.061 63.294 286.642 63.4573 285.297 63.4573ZM294.263 38.4121H279.917C282.208 41.2697 283.354 43.6987 283.354 45.6991C283.354 47.2504 282.557 48.618 280.963 49.8018C279.419 50.9857 276.829 51.9859 273.192 52.8024C273.242 54.0271 273.665 55.1701 274.462 56.2315C275.309 57.2521 276.405 58.0686 277.75 58.681C279.145 59.2933 280.689 59.5995 282.383 59.5995C284.076 59.5995 285.894 59.2525 287.837 58.5585C289.78 57.8645 291.872 56.7623 294.114 55.2518L294.263 38.4121Z" fill="white"/>
<path d="M225.926 17.1022L226.001 16.6736C227.944 16.3878 229.613 16.2041 231.007 16.1225C232.402 16.0408 233.324 16 233.772 16C236.312 16 238.679 16.7756 240.87 18.3269C243.062 19.8782 245.279 22.0623 247.52 24.8791C249.762 27.6551 252.203 30.8802 254.843 34.5543H250.808C248.417 31.1659 246.424 28.5532 244.83 26.7162C243.187 24.8383 241.742 23.5319 240.497 22.7971C239.251 22.0215 237.931 21.6336 236.537 21.6336C235.74 21.6336 234.644 21.6949 233.249 21.8173C231.804 21.9398 230.509 22.1031 229.364 22.3072L225.926 17.1022Z" fill="white"/>
<path d="M247.104 71.3566C242.272 71.3566 237.69 70.0299 233.356 67.3764C229.022 64.7228 225.411 60.9058 222.522 55.9254L225.361 54.5782C226.706 56.7418 228.275 58.7626 230.068 60.6405C231.911 62.4775 234.078 63.9676 236.569 65.1107C239.059 66.2129 241.973 66.764 245.311 66.764C248.1 66.764 250.217 66.417 251.662 65.723C253.156 64.9882 254.178 64.1309 254.725 63.1511C255.273 62.1305 255.547 61.1916 255.547 60.3343C255.547 59.6403 255.298 59.0892 254.8 58.681C254.302 58.2319 253.605 58.0074 252.708 58.0074C251.762 58.0074 250.491 58.1298 248.897 58.3748C247.353 58.6197 245.834 58.8647 244.34 59.1096C242.845 59.3545 241.675 59.477 240.828 59.477C239.582 59.477 238.262 59.1708 236.868 58.5585C235.523 57.9053 234.252 57.0684 233.057 56.0478C231.861 54.9864 230.89 53.823 230.143 52.5574C229.396 51.2511 229.022 49.9447 229.022 48.6384C229.022 47.1279 229.744 45.9236 231.189 45.0255C232.634 44.0866 234.875 43.6171 237.914 43.6171H249.719V38.4121H221.027L218.487 34.4318V33.8195H263.243L265.784 37.7997V38.4121H255.772C255.821 39.9226 255.846 41.5147 255.846 43.1884C255.896 44.8622 255.921 46.3727 255.921 47.7199L255.024 48.2097H239.259C236.021 48.2097 234.402 49.1487 234.402 51.0266C234.402 52.2921 234.825 53.2923 235.672 54.0271C236.569 54.7211 237.465 55.0681 238.362 55.0681C238.81 55.0681 239.557 54.9864 240.604 54.8231C241.65 54.6598 242.82 54.4965 244.115 54.3333C245.41 54.1291 246.656 53.9454 247.851 53.7821C249.047 53.6188 250.018 53.5372 250.765 53.5372C252.16 53.5372 253.605 54.0067 255.099 54.9456C256.643 55.8845 257.938 57.1092 258.984 58.6197C260.08 60.1302 260.628 61.7223 260.628 63.3961C260.628 64.4575 260.18 65.6209 259.283 66.8865C258.387 68.1112 256.942 69.1726 254.95 70.0707C252.957 70.928 250.342 71.3566 247.104 71.3566Z" fill="white"/>
<path d="M194.699 72.7038H193.951L187.974 69.5196L188.273 38.4121H181.697L179.157 34.4318V33.8195H188.796C188.447 31.0843 187.7 28.9002 186.554 27.2673C185.408 25.6343 184.014 24.4505 182.37 23.7156C180.776 22.9808 179.107 22.6134 177.364 22.6134C175.072 22.6134 173.304 23.1237 172.059 24.1443C170.813 25.1241 170.191 26.3896 170.191 27.9409C170.191 29.0023 170.539 30.1657 171.237 31.4313L168.995 32.4723C167.75 31.4109 166.828 30.2882 166.231 29.1043C165.583 27.8796 165.259 26.6753 165.259 25.4915C165.259 23.4503 166.131 21.6745 167.874 20.164C169.618 18.6535 172.108 17.8983 175.346 17.8983C178.186 17.8983 180.826 18.5515 183.266 19.8578C185.757 21.1233 187.899 22.9604 189.692 25.369C191.535 27.7368 192.88 30.5536 193.727 33.8195H200.751L203.291 37.7997V38.4121H194.549L194.699 72.7038Z" fill="white"/>
<path d="M175.903 73.01H175.155L160.361 58.1298C158.518 56.2928 157.198 54.8027 156.401 53.6597C155.654 52.4758 155.28 51.5368 155.28 50.8428C155.28 49.5365 156.55 48.8833 159.091 48.8833C159.838 48.8833 160.859 48.9241 162.154 49.0058C163.449 49.0874 164.545 49.1691 165.442 49.2507C165.691 48.2301 165.84 47.0667 165.89 45.7603C165.99 44.4131 166.04 43.2497 166.04 42.2699C166.04 41.4126 166.015 40.6778 165.965 40.0654C165.965 39.4531 165.94 38.902 165.89 38.4121H152.291L149.751 34.4318V33.8195H180.834L183.375 37.7997V38.4121H172.092C172.142 39.1877 172.192 40.045 172.241 40.984C172.291 41.9229 172.316 42.5761 172.316 42.9435C172.316 46.291 172.017 48.9446 171.419 50.9041C170.822 52.8636 169.9 54.3333 168.655 55.313C167.459 56.2928 165.965 56.946 164.172 57.2725L179.713 70.4381L175.903 73.01Z" fill="white"/>
<path d="M115.38 17.1022L115.455 16.6736C117.397 16.3878 119.066 16.2041 120.461 16.1225C121.856 16.0408 122.777 16 123.226 16C125.766 16 128.132 16.7756 130.324 18.3269C132.516 19.8782 134.732 22.0623 136.974 24.8791C139.215 27.6551 141.656 30.8802 144.296 34.5543H140.262C137.871 31.1659 135.878 28.5532 134.284 26.7162C132.64 24.8383 131.196 23.5319 129.95 22.7971C128.705 22.0215 127.385 21.6336 125.99 21.6336C125.193 21.6336 124.097 21.6949 122.703 21.8173C121.258 21.9398 119.963 22.1031 118.817 22.3072L115.38 17.1022Z" fill="white"/>
<path d="M111.92 52.8024H115.955L116.03 38.4121H106.54L104 34.4318V33.8195H151.372L153.912 37.7997V38.4121H145.17L145.32 72.3976H144.573L138.595 69.2134L138.67 57.395H122.306V61.804C122.306 62.8245 121.733 63.3348 120.588 63.3348C119.84 63.3348 118.869 63.0287 117.674 62.4163C116.528 61.7631 115.357 60.9467 114.162 59.9669C113.016 58.9871 112.045 57.987 111.248 56.9664C110.451 55.905 110.052 54.9864 110.052 54.2108C110.052 53.8434 110.202 53.5168 110.501 53.231C110.799 52.9453 111.273 52.8024 111.92 52.8024ZM138.894 38.4121H122.157L122.231 52.8024H138.744L138.894 38.4121Z" fill="white"/>
</svg>
