<svg width="101" height="33" viewBox="0 0 101 33" fill="none" xmlns="http://www.w3.org/2000/svg">
<g clip-path="url(#clip0_20_8)">
<path fill-rule="evenodd" clip-rule="evenodd" d="M40 22.479H42.148C42.178 23.65 43.028 24.451 44.248 24.451C45.684 24.451 46.465 23.591 46.465 21.981V12H48.652V21.99C48.652 24.783 47.012 26.404 44.268 26.404C41.728 26.404 40 24.822 40 22.479ZM59.834 15.819V26.092H57.812V24.354H57.764C57.197 25.584 56.152 26.277 54.58 26.277C52.344 26.277 50.977 24.822 50.977 22.469V15.819H53.086V22.059C53.086 23.621 53.828 24.461 55.283 24.461C56.807 24.461 57.725 23.406 57.725 21.805V15.818H59.834V15.819ZM61.729 18.729C61.729 16.893 63.33 15.633 65.693 15.633C68.086 15.633 69.639 16.961 69.707 18.855H67.725C67.607 17.859 66.875 17.235 65.693 17.235C64.551 17.235 63.789 17.791 63.789 18.611C63.789 19.256 64.258 19.695 65.371 19.949L67.041 20.33C69.141 20.818 69.941 21.639 69.941 23.123C69.941 24.998 68.193 26.287 65.771 26.287C63.203 26.287 61.661 25.027 61.465 23.074H63.555C63.75 24.148 64.482 24.676 65.771 24.676C67.041 24.676 67.822 24.148 67.822 23.309C67.822 22.645 67.442 22.254 66.318 22L64.648 21.61C62.695 21.16 61.729 20.223 61.729 18.729ZM72.188 13.387H74.307V15.818H76.26V17.488H74.307V23.152C74.307 24.041 74.697 24.442 75.557 24.442C75.771 24.442 76.113 24.422 76.25 24.392V26.062C76.016 26.122 75.547 26.16 75.078 26.16C72.998 26.16 72.188 25.37 72.188 23.387V17.488H70.693V15.818H72.188V13.387ZM78.242 12H83.212C87.402 12 89.882 14.578 89.882 19.021C89.882 23.475 87.412 26.091 83.212 26.091H78.242V12ZM80.43 13.885V24.197H83.008C85.996 24.197 87.646 22.371 87.646 19.041C87.646 15.721 85.986 13.885 83.008 13.885H80.43ZM96.133 26.287C93.193 26.287 91.26 24.266 91.26 20.955C91.26 17.655 93.203 15.633 96.133 15.633C99.063 15.633 101.006 17.654 101.006 20.955C101.006 24.265 99.072 26.287 96.133 26.287ZM96.133 24.549C97.793 24.549 98.857 23.24 98.857 20.955C98.857 18.68 97.783 17.371 96.133 17.371C94.483 17.371 93.408 18.68 93.408 20.955C93.408 23.24 94.482 24.549 96.133 24.549Z" fill="white"/>
<path d="M2.45899 11.704C3.64155 10.5217 5.24529 9.85753 6.91749 9.85753C8.58969 9.85753 10.1934 10.5217 11.376 11.704L23.216 23.543L14.298 32.46L2.45799 20.622C1.2754 19.4394 0.611023 17.8354 0.611023 16.163C0.611023 14.4906 1.2754 12.8866 2.45799 11.704H2.45899Z" fill="#FC7242"/>
<path d="M5.287 14.533C6.4696 13.3504 8.07355 12.686 9.746 12.686C11.4184 12.686 13.0224 13.3504 14.205 14.533L23.215 23.543L14.298 32.46L5.288 23.45C4.10571 22.2674 3.44153 20.6637 3.44153 18.9915C3.44153 17.3193 4.10471 15.7156 5.287 14.533Z" fill="#FF906A"/>
<path d="M36.002 1.839C37.1843 3.02156 37.8485 4.62529 37.8485 6.2975C37.8485 7.9697 37.1843 9.57343 36.002 10.756L14.298 32.46L5.38 23.543L27.084 1.839C28.2666 0.656402 29.8706 -0.00797272 31.543 -0.00797272C33.2155 -0.00797272 34.8194 0.656402 36.002 1.839Z" fill="#F5A623"/>
<path d="M23.308 14.533C24.4903 15.7156 25.1545 17.3193 25.1545 18.9915C25.1545 20.6637 24.4903 22.2674 23.308 23.45L14.298 32.46L5.38 23.543L14.39 14.533C15.5726 13.3504 17.1766 12.686 18.849 12.686C20.5215 12.686 22.1254 13.3504 23.308 14.533Z" fill="#FFC100"/>
</g>
<defs>
<clipPath id="clip0_20_8">
<rect width="101" height="33" fill="white"/>
</clipPath>
</defs>
</svg>
