<svg width="365" height="90" viewBox="0 0 365 90" fill="none" xmlns="http://www.w3.org/2000/svg">
<path d="M52.5 81C72.6584 81 89 64.6584 89 44.5C89 24.3416 72.6584 8 52.5 8C32.3416 8 16 24.3416 16 44.5C16 64.6584 32.3416 81 52.5 81Z" fill="#0066B7"/>
<path fill-rule="evenodd" clip-rule="evenodd" d="M40.4861 40.2312C40.2796 45.3968 38.621 42.6834 37.201 42.849C41.6592 46.3157 41.8846 40.7693 42.0352 37.5614C42.2289 38.7411 43.778 40.9141 45.779 41.2246C47.3797 41.4729 49.286 39.9207 50.0391 39.1136L48.9418 41.8454C48.8494 42.0897 48.7534 42.333 48.6544 42.5746C48.5952 42.5562 48.5401 42.5409 48.4899 42.5284C46.3212 41.9324 44.7462 44.8049 44.2298 46.3157C43.6489 47.9093 42.9905 51.0468 45.0044 50.8481C47.0183 50.6494 49.2 46.295 50.0391 44.1427L50.2345 43.653C50.7844 44.0463 51.2254 44.4852 51.4591 44.7635C51.1589 44.2246 50.7456 43.7925 50.3132 43.4558L52.8146 37.1889L55.3319 29.9247C55.504 29.5728 55.6546 28.7947 54.8801 28.4967C54.1055 28.1986 53.6537 28.6208 53.5246 28.8692L50.6845 34.457C48.7739 38.4306 46.8332 39.424 46.1017 39.424C45.1722 39.424 44.4665 38.1823 44.2298 37.5614C43.6102 35.4256 42.7237 34.1052 42.358 33.712C41.1187 33.0166 40.7658 33.919 40.7443 34.457L40.4861 40.2312ZM48.4899 42.8388C48.5068 42.8421 48.5236 42.8455 48.5404 42.849C47.323 45.7397 45.7186 48.3368 45.0044 49.358V49.1717V47.6196C45.1593 43.497 47.3926 42.7147 48.4899 42.8388Z" fill="white"/>
<path d="M60.133 54.0797C59.7628 54.0797 59.4468 53.9842 59.185 53.7931C58.9141 53.6021 58.7787 53.3459 58.7787 53.0245C58.7787 52.7727 58.8599 52.5555 59.0224 52.3731C59.1759 52.1994 59.3701 52.1126 59.6048 52.1126C59.7132 52.1126 59.7899 52.13 59.8351 52.1647C59.8802 52.1994 59.9163 52.2385 59.9434 52.282C60.0156 52.3949 60.0969 52.4904 60.1872 52.5686C60.2865 52.6554 60.4174 52.6988 60.5799 52.6988C60.7966 52.6988 61.0043 52.625 61.2029 52.4774C61.4106 52.3297 61.6002 52.1604 61.7718 51.9693C61.9253 51.8043 62.1104 51.5654 62.3271 51.2528C62.5438 50.9488 62.7605 50.6014 62.9771 50.2106C62.7785 50.3756 62.5934 50.4929 62.4219 50.5623C62.2503 50.6405 62.0878 50.6796 61.9343 50.6796C61.7447 50.6796 61.5596 50.6144 61.379 50.4842C61.1984 50.3452 61.0856 50.089 61.0404 49.7155C61.0133 49.4289 60.9592 49.1119 60.8779 48.7645C60.8057 48.4171 60.7109 48.0828 60.5935 47.7614C60.4851 47.4314 60.3497 47.1535 60.1872 46.9277C60.124 46.8235 60.0517 46.7453 59.9705 46.6932C59.8892 46.6411 59.7718 46.6063 59.6184 46.589C59.51 46.5803 59.4378 46.5499 59.4017 46.4978C59.3746 46.4457 59.361 46.3632 59.361 46.2503C59.361 45.9376 59.4513 45.6857 59.6319 45.4947C59.8125 45.3036 60.0563 45.2081 60.3632 45.2081C60.7334 45.2081 60.9998 45.347 61.1623 45.6249C61.3248 45.8942 61.4648 46.2242 61.5822 46.615C61.6273 46.7714 61.6725 46.9798 61.7176 47.2403C61.7718 47.4922 61.8169 47.7658 61.853 48.0611C61.8982 48.3564 61.9298 48.6386 61.9478 48.9078C61.9569 49.0989 62.0697 49.1945 62.2864 49.1945C62.5754 49.1945 62.8507 49.1076 63.1126 48.9339C63.3744 48.7602 63.5866 48.5344 63.7491 48.2565C63.9207 47.9786 64.0065 47.6876 64.0065 47.3836C64.0065 47.2099 63.9839 47.0536 63.9387 46.9147C63.8936 46.7757 63.8168 46.6541 63.7085 46.5499C63.6182 46.4457 63.546 46.3632 63.4918 46.3024C63.4376 46.2329 63.4105 46.1547 63.4105 46.0679C63.4105 45.9202 63.4828 45.7813 63.6272 45.651C63.7717 45.5207 63.9433 45.4122 64.1419 45.3253C64.3496 45.2385 64.5301 45.195 64.6836 45.195C64.9545 45.195 65.1351 45.321 65.2254 45.5728C65.3157 45.816 65.3382 46.0852 65.2931 46.3805C65.2389 46.7887 65.1306 47.2707 64.968 47.8266C64.8055 48.3824 64.5933 48.9643 64.3315 49.5722C64.0787 50.1802 63.7852 50.7664 63.4512 51.331C63.1261 51.9042 62.7785 52.4035 62.4083 52.8291C62.0923 53.2026 61.7402 53.5022 61.3519 53.728C60.9637 53.9625 60.5574 54.0797 60.133 54.0797Z" fill="white"/>
<path d="M55.7786 50.6275C55.6341 50.6275 55.5167 50.6014 55.4264 50.5493C55.3452 50.5059 55.3181 50.4277 55.3452 50.3148C55.4445 49.9414 55.5258 49.5636 55.589 49.1814C55.6612 48.7906 55.6973 48.4172 55.6973 48.0611C55.6973 47.6008 55.6657 47.2664 55.6025 47.058C55.5483 46.8408 55.4716 46.6932 55.3723 46.615C55.273 46.5282 55.1511 46.4631 55.0066 46.4196C54.9434 46.3936 54.8847 46.3588 54.8305 46.3154C54.7854 46.272 54.7628 46.2112 54.7628 46.133C54.7628 46.0114 54.8125 45.8768 54.9118 45.7292C55.0111 45.5815 55.1511 45.4556 55.3316 45.3514C55.5122 45.2385 55.7199 45.182 55.9546 45.182C56.2616 45.182 56.4738 45.2862 56.5912 45.4947C56.7176 45.6944 56.7808 45.9593 56.7808 46.2894C56.9433 45.942 57.142 45.6684 57.3767 45.4686C57.6205 45.2602 57.923 45.156 58.2841 45.156C58.5279 45.156 58.7311 45.2081 58.8936 45.3123C59.0561 45.4165 59.1374 45.5859 59.1374 45.8204C59.1374 46.0549 59.0561 46.2763 58.8936 46.4848C58.7401 46.6845 58.5821 46.7844 58.4196 46.7844C58.3925 46.7844 58.3609 46.7801 58.3248 46.7714C58.2886 46.7627 58.257 46.741 58.23 46.7062C58.1126 46.5673 57.9681 46.4978 57.7966 46.4978C57.5347 46.4978 57.3045 46.6628 57.1058 46.9928C56.9072 47.3229 56.7989 47.7788 56.7808 48.3607C56.7898 48.5778 56.7943 48.7993 56.7943 49.0251C56.8034 49.2509 56.8079 49.4159 56.8079 49.5202C56.8079 49.8415 56.7131 50.1064 56.5235 50.3148C56.3429 50.5233 56.0946 50.6275 55.7786 50.6275Z" fill="white"/>
<path d="M52.7442 44.0097C52.4914 44.001 52.2882 43.9272 52.1347 43.7882C51.9812 43.6493 51.9045 43.4539 51.9045 43.202C51.9135 42.9328 52.0083 42.7156 52.1889 42.5506C52.3695 42.3769 52.5997 42.2944 52.8796 42.3031C53.1415 42.3118 53.3446 42.3856 53.4891 42.5246C53.6426 42.6635 53.7148 42.8589 53.7058 43.1108C53.6967 43.3713 53.6064 43.5885 53.4349 43.7622C53.2633 43.9272 53.0331 44.0097 52.7442 44.0097ZM52.7577 50.6146C52.4869 50.6146 52.2747 50.5451 52.1212 50.4062C51.9677 50.2585 51.8909 50.011 51.8909 49.6636C51.8909 49.4638 51.909 49.2684 51.9451 49.0774C51.9903 48.8863 52.0399 48.6996 52.0941 48.5172C52.1573 48.3261 52.207 48.1307 52.2431 47.9309C52.2882 47.7312 52.3108 47.5184 52.3108 47.2926C52.3108 47.1363 52.2882 46.9886 52.2431 46.8497C52.1979 46.702 52.0986 46.5935 51.9451 46.524C51.8277 46.4632 51.7239 46.4024 51.6336 46.3416C51.5523 46.2721 51.5117 46.1853 51.5117 46.0811C51.5117 45.9595 51.5704 45.8292 51.6878 45.6902C51.8052 45.5513 51.9587 45.434 52.1483 45.3385C52.3469 45.2343 52.5501 45.1822 52.7577 45.1822C52.9834 45.1822 53.146 45.2386 53.2453 45.3515C53.3536 45.4644 53.4259 45.6077 53.462 45.7814C53.4981 45.9551 53.5162 46.1332 53.5162 46.3155C53.5162 46.5935 53.4936 46.867 53.4484 47.1363C53.4033 47.3968 53.3582 47.64 53.313 47.8658C53.2769 48.0308 53.2498 48.1828 53.2317 48.3218C53.2137 48.4607 53.2047 48.591 53.2047 48.7126C53.2047 48.9297 53.2588 49.0947 53.3672 49.2076C53.4755 49.3119 53.629 49.4117 53.8277 49.5073C53.9089 49.5507 53.9496 49.6158 53.9496 49.7027C53.9496 49.7722 53.9134 49.8807 53.8412 50.0284C53.769 50.176 53.6426 50.3106 53.462 50.4322C53.2904 50.5538 53.0557 50.6146 52.7577 50.6146Z" fill="white"/>
<path d="M37.0608 50.9141C36.7267 50.9141 36.4198 50.8837 36.1399 50.8229C35.86 50.7621 35.6297 50.6492 35.4491 50.4842C35.3137 50.3626 35.2234 50.228 35.1783 50.0803C35.1331 49.924 35.1105 49.7547 35.1105 49.5723C35.1105 49.277 35.1376 48.9817 35.1918 48.6864C35.2731 48.174 35.3453 47.6225 35.4085 47.0319C35.4717 46.4413 35.5033 45.8942 35.5033 45.3905C35.5033 45.2341 35.4943 45.0561 35.4762 44.8563C35.4672 44.6566 35.4491 44.4699 35.4221 44.2962C35.3588 44.3222 35.2956 44.3483 35.2324 44.3743C35.1783 44.3917 35.1286 44.4004 35.0835 44.4004C35.0022 44.4004 34.948 44.3613 34.9209 44.2831C34.8939 44.205 34.8803 44.1181 34.8803 44.0226C34.8803 43.7707 34.939 43.5579 35.0564 43.3842C35.1828 43.2019 35.3859 43.0412 35.6658 42.9022C35.9638 42.7459 36.352 42.6113 36.8306 42.4984C37.3181 42.3768 37.8102 42.316 38.3068 42.316C39.4354 42.316 40.3203 42.6373 40.9613 43.28C41.6114 43.914 41.9365 44.8173 41.9365 45.9897C41.9365 46.6585 41.8281 47.2925 41.6114 47.8917C41.4038 48.4823 41.0923 49.0077 40.6769 49.468C40.2616 49.9197 39.7515 50.2757 39.1465 50.5363C38.5416 50.7882 37.8463 50.9141 37.0608 50.9141ZM37.4942 49.455C37.9005 49.455 38.3068 49.3942 38.7131 49.2726C39.1194 49.151 39.4851 48.9687 39.8101 48.7255C40.1442 48.4823 40.4106 48.174 40.6092 47.8005C40.8079 47.4184 40.9072 46.9624 40.9072 46.4327C40.9072 45.8334 40.7853 45.3384 40.5415 44.9475C40.2977 44.5567 39.9727 44.2658 39.5664 44.0747C39.1601 43.8836 38.7086 43.7881 38.212 43.7881C37.9411 43.7881 37.6703 43.8098 37.3994 43.8532C37.1376 43.8966 36.9299 43.9401 36.7764 43.9835C36.7674 44.383 36.7403 44.7738 36.6951 45.156C36.659 45.5294 36.6139 45.8942 36.5597 46.2503C36.5055 46.6237 36.4604 46.9885 36.4243 47.3446C36.3972 47.7007 36.3836 48.0524 36.3836 48.3998C36.3836 48.834 36.4739 49.1206 36.6545 49.2596C36.8441 49.3899 37.124 49.455 37.4942 49.455Z" fill="white"/>
<path d="M60.3456 21.4599C60.6548 21.6644 60.9598 21.8944 61.2569 22.1473C73.309 31.423 78.3217 42.7629 77.2645 51.1102C76.7228 53.5073 74.601 55.1487 73.6078 55.6698C71.7659 63.3821 67.6938 67.2208 65.888 68.1762C61.7707 70.8859 59.8385 69.3052 59.3871 68.1762C59.4322 65.8312 58.6557 62.0272 55.1886 65.5707C51.7215 69.1141 46.8819 70 44.8955 70C34.7108 69.3747 34.151 65.4838 35.1442 63.6166C36.3631 62.8783 38.2321 61.1413 35.9568 60.0992C33.6815 59.057 30.2234 56.1909 28.7787 54.8882C26.4763 53.1946 29.7268 48.2442 32.7064 51.7616C35.09 54.5755 38.8461 56.8423 40.4262 57.6239C42.864 58.7964 48.8231 59.1872 47.0625 56.0606C45.654 53.5594 48.1911 53.8894 49.6358 54.3671C57.6535 57.5979 63.8113 55.4527 65.888 53.9763C69.5447 50.9799 68.4612 47.5928 66.2943 46.0295C64.5607 44.7789 66.1137 42.3818 67.1069 41.3396C68.7321 37.4314 66.4297 35.7379 64.3982 36.1287C62.773 36.4413 62.9987 35.3905 63.3147 34.8259C66.6831 30.1564 64.4287 24.848 61.2569 22.1473C60.9574 21.9169 60.6537 21.6877 60.3456 21.4599Z" fill="#84C0EF"/>
<path d="M63.6942 33.5485C67.378 28.4418 61.0758 22.3884 57.4642 20C76.2084 23.335 78.7275 41.2781 77.644 49.8328C77.1023 52.2299 74.9805 53.8713 73.9873 54.3924C72.1454 62.1047 68.0733 65.9434 66.2675 66.8988C62.1502 69.6085 60.218 68.0278 59.7666 66.8988C59.8117 64.5538 59.0352 60.7498 55.5681 64.2933C52.1009 67.8367 47.2614 68.7226 45.275 68.7226C35.0903 68.0973 34.5305 64.2064 35.5237 62.3392C36.7426 61.6009 38.6116 59.8639 36.3363 58.8218C34.061 57.7796 30.6029 54.9135 29.1582 53.6108C26.8558 51.9172 30.1063 46.9668 33.0859 50.4842C35.4695 53.2981 39.2256 55.5649 40.8057 56.3465C43.2435 57.519 49.2026 57.9098 47.442 54.7832C46.0335 52.282 48.5706 52.612 50.0152 53.0897C58.033 56.3205 64.1908 54.1753 66.2675 52.6989C69.9242 49.7025 68.8407 46.3154 66.6738 44.7521C64.9402 43.5015 66.4932 41.1044 67.4864 40.0622C69.1116 36.154 66.8092 34.4605 64.7777 34.8513C63.1525 35.1639 63.3782 34.1131 63.6942 33.5485Z" fill="white"/>
<path d="M53.5146 66.101C51.902 67.1959 48.0778 69.4951 42.6141 68.4732C41.9185 67.135 39.9582 62.9115 37.6817 62.1816C37.4287 62.1512 36.9418 61.9444 37.0177 61.3604C37.1125 60.6305 38.9148 59.9918 40.053 62.1816C40.1479 62.2728 40.3945 62.3823 40.6222 62.0903C40.9067 61.7254 41.9502 61.8166 42.6141 63.5502C43.1453 64.937 43.9737 65.4054 44.3215 65.4662C43.8156 64.6147 42.7659 62.7108 42.6141 61.9079C42.3612 61.4516 41.4569 60.4662 39.8633 60.1743C38.2698 59.8823 37.9346 59.0186 37.9662 58.6232C37.9662 58.2278 38.3836 57.4735 40.053 57.6195C41.7225 57.7655 42.8355 59.9918 43.1833 61.0867C43.3414 62.212 43.9042 64.6086 44.8907 65.1925L46.4083 64.1889C46.6613 63.976 47.3 63.6597 47.8312 64.0976C48.4952 64.6451 50.2026 65.01 51.0563 63.9151C51.246 62.6986 52.0048 59.9371 53.5225 58.6232V56.7984C53.7122 56.5551 54.2434 56.1414 54.8505 56.4334C54.7872 55.9468 54.9833 54.9918 56.2733 55.0648C57.5633 55.1378 56.1784 56.7984 55.3247 57.6195C54.471 58.8361 52.9075 62.2324 53.5146 66.101C53.6094 64.3066 54.8125 60.7035 57.6961 60.6305C58.202 60.6305 59.2518 60.9225 59.4035 62.0903C59.4035 62.5161 59.0241 63.3495 57.5064 63.2765C56.5895 63.3981 53.894 63.9842 53.5146 66.101Z" fill="#0066B7"/>
<path d="M73.1157 51.3084C73.3161 49.1086 71.9681 47.535 71.2691 47.0232C70.8517 47.0232 70.1006 46.3273 69.7771 45.9794C69.4266 45.6182 68.8729 45.5345 68.6399 45.5379C68.3478 45.5379 68.1078 45.3305 68.0243 45.2268C68.0577 45.1706 68.0104 45.016 67.9826 44.9458C67.9325 44.8093 67.9339 44.628 67.9409 44.5544C67.9743 44.3296 68.2121 44.2868 68.3269 44.2935C68.6858 44.2854 69.1164 43.8552 69.2868 43.6411C69.679 43.1353 70.1875 42.9754 70.3927 42.9587H70.5909C70.8497 42.9667 71.0604 43.1226 71.1334 43.1996C71.1585 43.2237 71.2204 43.2096 71.2482 43.1996C71.6071 43.031 72.2115 43.0624 72.4689 43.0992C72.4522 43.1715 72.3506 43.3367 72.302 43.4103C72.3854 43.4672 72.7109 43.5127 73.3453 43.2397C73.9796 42.9667 74.5555 43.0122 74.7642 43.0691C77.2514 44.2378 77.9831 43.0767 77.9997 42.4755V42.434C78.0001 42.4475 78.0001 42.4613 77.9997 42.4755V44.8063L77.9048 46.8316L77.8204 48.7004V49.6425L77.5669 50.1629C77.6233 49.8379 77.2515 49.4217 76.4752 49.1808C75.699 48.94 75.4145 49.3882 75.3693 49.6425V51.0876C75.3345 51.1913 75.2233 51.4047 75.0563 51.4288C74.8894 51.4529 74.792 51.2515 74.7642 51.1478L74.4512 49.9235C74.4547 49.8632 74.4136 49.7408 74.2217 49.7328C74.0297 49.7247 73.9608 49.8565 73.9504 49.9235L73.7626 51.0876C73.4955 51.497 73.2201 51.4054 73.1157 51.3084Z" fill="#0066B7"/>
<path d="M354.047 72.7038H353.3L347.323 69.5196L347.621 38.4121H341.046L338.506 34.4318V33.8194H348.144C347.796 31.0843 347.049 28.9002 345.903 27.2673C344.757 25.6343 343.362 24.4505 341.719 23.7156C340.125 22.9808 338.456 22.6134 336.712 22.6134C334.421 22.6134 332.653 23.1237 331.407 24.1443C330.162 25.124 329.539 26.3896 329.539 27.9409C329.539 29.0023 329.888 30.1657 330.586 31.4313L328.344 32.4723C327.099 31.4109 326.177 30.2882 325.579 29.1043C324.932 27.8796 324.608 26.6753 324.608 25.4915C324.608 23.4503 325.48 21.6745 327.223 20.164C328.967 18.6535 331.457 17.8983 334.695 17.8983C337.534 17.8983 340.174 18.5515 342.615 19.8578C345.106 21.1233 347.248 22.9604 349.041 25.369C350.884 27.7367 352.229 30.5536 353.076 33.8194H360.1L362.64 37.7997V38.4121H353.898L354.047 72.7038Z" fill="#0066B7"/>
<path d="M335.251 73.01H334.504L319.71 58.1298C317.867 56.2928 316.547 54.8027 315.75 53.6597C315.002 52.4758 314.629 51.5368 314.629 50.8429C314.629 49.5365 315.899 48.8833 318.44 48.8833C319.187 48.8833 320.208 48.9241 321.503 49.0058C322.798 49.0874 323.894 49.1691 324.791 49.2507C325.04 48.2301 325.189 47.0667 325.239 45.7603C325.339 44.4132 325.388 43.2497 325.388 42.2699C325.388 41.4126 325.363 40.6778 325.314 40.0655C325.314 39.4531 325.289 38.902 325.239 38.4121H311.64L309.1 34.4318V33.8195H340.183L342.723 37.7997V38.4121H331.441C331.49 39.1877 331.54 40.045 331.59 40.984C331.64 41.9229 331.665 42.5761 331.665 42.9435C331.665 46.291 331.366 48.9446 330.768 50.9041C330.17 52.8636 329.249 54.3333 328.004 55.313C326.808 56.2928 325.314 56.946 323.52 57.2725L339.062 70.4381L335.251 73.01Z" fill="#0066B7"/>
<path d="M289.297 63.4573C286.358 63.4573 283.568 62.8245 280.928 61.559C278.338 60.2527 276.121 58.5177 274.278 56.354C272.485 54.1904 271.289 51.7614 270.692 49.067C274.577 48.2914 277.416 47.4545 279.21 46.5564C281.053 45.6174 281.974 44.454 281.974 43.066C281.974 42.5353 281.8 41.8617 281.451 41.0452C281.152 40.2287 280.604 39.351 279.807 38.4121H268.151L265.611 34.4318V33.8195H310.741L313.282 37.7997V38.4121H304.539L304.689 72.3976H303.942L297.964 69.2134L298.039 61.2528C296.544 62.0693 295.05 62.6408 293.556 62.9674C292.061 63.294 290.642 63.4573 289.297 63.4573ZM298.263 38.4121H283.917C286.208 41.2697 287.354 43.6987 287.354 45.6991C287.354 47.2504 286.557 48.618 284.963 49.8018C283.419 50.9857 280.829 51.9859 277.192 52.8024C277.242 54.0271 277.665 55.1701 278.462 56.2315C279.309 57.2521 280.405 58.0686 281.75 58.681C283.145 59.2933 284.689 59.5995 286.383 59.5995C288.076 59.5995 289.894 59.2525 291.837 58.5585C293.78 57.8645 295.872 56.7623 298.114 55.2518L298.263 38.4121Z" fill="#0066B7"/>
<path d="M229.926 17.1022L230.001 16.6736C231.944 16.3878 233.613 16.2041 235.007 16.1225C236.402 16.0408 237.324 16 237.772 16C240.312 16 242.679 16.7756 244.87 18.3269C247.062 19.8782 249.279 22.0623 251.52 24.8791C253.762 27.6551 256.203 30.8802 258.843 34.5543H254.808C252.417 31.1659 250.424 28.5532 248.83 26.7162C247.187 24.8383 245.742 23.5319 244.497 22.7971C243.251 22.0215 241.931 21.6336 240.537 21.6336C239.74 21.6336 238.644 21.6949 237.249 21.8173C235.804 21.9398 234.509 22.1031 233.364 22.3072L229.926 17.1022Z" fill="#0066B7"/>
<path d="M251.104 71.3566C246.272 71.3566 241.69 70.0299 237.356 67.3764C233.022 64.7228 229.411 60.9058 226.522 55.9254L229.361 54.5782C230.706 56.7418 232.275 58.7626 234.068 60.6405C235.911 62.4775 238.078 63.9676 240.569 65.1107C243.059 66.2129 245.973 66.764 249.311 66.764C252.1 66.764 254.217 66.417 255.662 65.723C257.156 64.9882 258.178 64.1309 258.725 63.1511C259.273 62.1305 259.547 61.1916 259.547 60.3343C259.547 59.6403 259.298 59.0892 258.8 58.681C258.302 58.2319 257.605 58.0074 256.708 58.0074C255.762 58.0074 254.491 58.1298 252.897 58.3748C251.353 58.6197 249.834 58.8647 248.34 59.1096C246.845 59.3545 245.675 59.477 244.828 59.477C243.582 59.477 242.262 59.1708 240.868 58.5585C239.523 57.9053 238.252 57.0684 237.057 56.0478C235.861 54.9864 234.89 53.823 234.143 52.5574C233.396 51.2511 233.022 49.9447 233.022 48.6384C233.022 47.1279 233.744 45.9236 235.189 45.0255C236.634 44.0866 238.875 43.6171 241.914 43.6171H253.719V38.4121H225.027L222.487 34.4318V33.8195H267.243L269.784 37.7997V38.4121H259.772C259.821 39.9226 259.846 41.5147 259.846 43.1884C259.896 44.8622 259.921 46.3727 259.921 47.7199L259.024 48.2097H243.259C240.021 48.2097 238.402 49.1487 238.402 51.0266C238.402 52.2921 238.825 53.2923 239.672 54.0271C240.569 54.7211 241.465 55.0681 242.362 55.0681C242.81 55.0681 243.557 54.9864 244.604 54.8231C245.65 54.6598 246.82 54.4965 248.115 54.3333C249.41 54.1291 250.656 53.9454 251.851 53.7821C253.047 53.6188 254.018 53.5372 254.765 53.5372C256.16 53.5372 257.605 54.0067 259.099 54.9456C260.643 55.8845 261.938 57.1093 262.984 58.6197C264.08 60.1302 264.628 61.7223 264.628 63.3961C264.628 64.4575 264.18 65.6209 263.283 66.8865C262.387 68.1112 260.942 69.1726 258.95 70.0707C256.957 70.928 254.342 71.3566 251.104 71.3566Z" fill="#0066B7"/>
<path d="M198.699 72.7038H197.951L191.974 69.5196L192.273 38.4121H185.697L183.157 34.4318V33.8194H192.796C192.447 31.0843 191.7 28.9002 190.554 27.2673C189.408 25.6343 188.014 24.4505 186.37 23.7156C184.776 22.9808 183.107 22.6134 181.364 22.6134C179.072 22.6134 177.304 23.1237 176.059 24.1443C174.813 25.124 174.191 26.3896 174.191 27.9409C174.191 29.0023 174.539 30.1657 175.237 31.4313L172.995 32.4723C171.75 31.4109 170.828 30.2882 170.231 29.1043C169.583 27.8796 169.259 26.6753 169.259 25.4915C169.259 23.4503 170.131 21.6745 171.874 20.164C173.618 18.6535 176.108 17.8983 179.346 17.8983C182.186 17.8983 184.826 18.5515 187.266 19.8578C189.757 21.1233 191.899 22.9604 193.692 25.369C195.535 27.7367 196.88 30.5536 197.727 33.8194H204.751L207.291 37.7997V38.4121H198.549L198.699 72.7038Z" fill="#0066B7"/>
<path d="M179.903 73.01H179.155L164.361 58.1298C162.518 56.2928 161.198 54.8027 160.401 53.6597C159.654 52.4758 159.28 51.5368 159.28 50.8429C159.28 49.5365 160.55 48.8833 163.091 48.8833C163.838 48.8833 164.859 48.9241 166.154 49.0058C167.449 49.0874 168.545 49.1691 169.442 49.2507C169.691 48.2301 169.84 47.0667 169.89 45.7603C169.99 44.4132 170.04 43.2497 170.04 42.2699C170.04 41.4126 170.015 40.6778 169.965 40.0655C169.965 39.4531 169.94 38.902 169.89 38.4121H156.291L153.751 34.4318V33.8195H184.834L187.375 37.7997V38.4121H176.092C176.142 39.1877 176.192 40.045 176.241 40.984C176.291 41.9229 176.316 42.5761 176.316 42.9435C176.316 46.291 176.017 48.9446 175.419 50.9041C174.822 52.8636 173.9 54.3333 172.655 55.313C171.459 56.2928 169.965 56.946 168.172 57.2725L183.713 70.4381L179.903 73.01Z" fill="#0066B7"/>
<path d="M119.38 17.1022L119.455 16.6736C121.397 16.3878 123.066 16.2041 124.461 16.1225C125.856 16.0408 126.777 16 127.226 16C129.766 16 132.132 16.7756 134.324 18.3269C136.516 19.8782 138.732 22.0623 140.974 24.8791C143.215 27.6551 145.656 30.8802 148.296 34.5543H144.262C141.871 31.1659 139.878 28.5532 138.284 26.7162C136.64 24.8383 135.196 23.5319 133.95 22.7971C132.705 22.0215 131.385 21.6336 129.99 21.6336C129.193 21.6336 128.097 21.6949 126.703 21.8173C125.258 21.9398 123.963 22.1031 122.817 22.3072L119.38 17.1022Z" fill="#0066B7"/>
<path d="M115.92 52.8024H119.955L120.03 38.4121H110.54L108 34.4318V33.8195H155.372L157.912 37.7997V38.4121H149.17L149.32 72.3976H148.573L142.595 69.2134L142.67 57.395H126.306V61.804C126.306 62.8245 125.733 63.3348 124.588 63.3348C123.84 63.3348 122.869 63.0287 121.674 62.4163C120.528 61.7631 119.357 60.9467 118.162 59.9669C117.016 58.9871 116.045 57.987 115.248 56.9664C114.451 55.905 114.052 54.9864 114.052 54.2108C114.052 53.8434 114.202 53.5168 114.501 53.231C114.799 52.9453 115.273 52.8024 115.92 52.8024ZM142.894 38.4121H126.157L126.231 52.8024H142.744L142.894 38.4121Z" fill="#0066B7"/>
</svg>
