<svg width="365" height="90" viewBox="0 0 365 90" fill="none" xmlns="http://www.w3.org/2000/svg">
<path d="M342.182 56.6348L350.59 28.5098H359.643L346.898 64.9844C346.625 65.7852 346.254 66.6445 345.785 67.5625C345.336 68.4805 344.721 69.3496 343.939 70.1699C343.178 71.0098 342.211 71.6934 341.039 72.2207C339.887 72.748 338.471 73.0117 336.791 73.0117C335.99 73.0117 335.336 72.9629 334.828 72.8652C334.32 72.7676 333.715 72.6309 333.012 72.4551V66.2734C333.227 66.2734 333.451 66.2734 333.686 66.2734C333.92 66.293 334.145 66.3027 334.359 66.3027C335.473 66.3027 336.381 66.1758 337.084 65.9219C337.787 65.668 338.354 65.2773 338.783 64.75C339.213 64.2422 339.555 63.5781 339.809 62.7578L342.182 56.6348ZM338.666 28.5098L345.551 51.4785L346.752 60.4141L341.01 61.0293L329.613 28.5098H338.666Z" fill="#0066B7"/>
<path d="M312.715 35.4238V60.209H304.277V28.5098H312.217L312.715 35.4238ZM322.266 28.3047L322.119 36.127C321.709 36.0684 321.211 36.0195 320.625 35.9805C320.059 35.9219 319.541 35.8926 319.072 35.8926C317.881 35.8926 316.846 36.0488 315.967 36.3613C315.107 36.6543 314.385 37.0938 313.799 37.6797C313.232 38.2656 312.803 38.9785 312.51 39.8184C312.236 40.6582 312.08 41.6152 312.041 42.6895L310.342 42.1621C310.342 40.1113 310.547 38.2266 310.957 36.5078C311.367 34.7695 311.963 33.2559 312.744 31.9668C313.545 30.6777 314.521 29.6816 315.674 28.9785C316.826 28.2754 318.145 27.9238 319.629 27.9238C320.098 27.9238 320.576 27.9629 321.064 28.041C321.553 28.0996 321.953 28.1875 322.266 28.3047Z" fill="#0066B7"/>
<path d="M291.305 28.5098V60.209H282.838V28.5098H291.305ZM282.311 20.248C282.311 19.0176 282.74 18.002 283.6 17.2012C284.459 16.4004 285.611 16 287.057 16C288.482 16 289.625 16.4004 290.484 17.2012C291.363 18.002 291.803 19.0176 291.803 20.248C291.803 21.4785 291.363 22.4941 290.484 23.2949C289.625 24.0957 288.482 24.4961 287.057 24.4961C285.611 24.4961 284.459 24.0957 283.6 23.2949C282.74 22.4941 282.311 21.4785 282.311 20.248Z" fill="#0066B7"/>
<path d="M261.398 53.0605V38.9395C261.398 37.9238 261.232 37.0547 260.9 36.332C260.568 35.5898 260.051 35.0137 259.348 34.6035C258.664 34.1934 257.775 33.9883 256.682 33.9883C255.744 33.9883 254.934 34.1543 254.25 34.4863C253.566 34.7988 253.039 35.2578 252.668 35.8633C252.297 36.4492 252.111 37.1426 252.111 37.9434H243.674C243.674 36.5957 243.986 35.3164 244.611 34.1055C245.236 32.8945 246.145 31.8301 247.336 30.9121C248.527 29.9746 249.943 29.2422 251.584 28.7148C253.244 28.1875 255.1 27.9238 257.15 27.9238C259.611 27.9238 261.799 28.334 263.713 29.1543C265.627 29.9746 267.131 31.2051 268.225 32.8457C269.338 34.4863 269.895 36.5371 269.895 38.998V52.5625C269.895 54.3008 270.002 55.7266 270.217 56.8398C270.432 57.9336 270.744 58.8906 271.154 59.7109V60.209H262.629C262.219 59.3496 261.906 58.2754 261.691 56.9863C261.496 55.6777 261.398 54.3691 261.398 53.0605ZM262.512 40.9023L262.57 45.6777H257.854C256.74 45.6777 255.773 45.8047 254.953 46.0586C254.133 46.3125 253.459 46.6738 252.932 47.1426C252.404 47.5918 252.014 48.1191 251.76 48.7246C251.525 49.3301 251.408 49.9941 251.408 50.7168C251.408 51.4395 251.574 52.0938 251.906 52.6797C252.238 53.2461 252.717 53.6953 253.342 54.0273C253.967 54.3398 254.699 54.4961 255.539 54.4961C256.809 54.4961 257.912 54.2422 258.85 53.7344C259.787 53.2266 260.51 52.6016 261.018 51.8594C261.545 51.1172 261.818 50.4141 261.838 49.75L264.064 53.3242C263.752 54.125 263.322 54.9551 262.775 55.8145C262.248 56.6738 261.574 57.4844 260.754 58.2461C259.934 58.9883 258.947 59.6035 257.795 60.0918C256.643 60.5605 255.275 60.7949 253.693 60.7949C251.682 60.7949 249.855 60.3945 248.215 59.5938C246.594 58.7734 245.305 57.6504 244.348 56.2246C243.41 54.7793 242.941 53.1387 242.941 51.3027C242.941 49.6426 243.254 48.168 243.879 46.8789C244.504 45.5898 245.422 44.5059 246.633 43.627C247.863 42.7285 249.396 42.0547 251.232 41.6055C253.068 41.1367 255.197 40.9023 257.619 40.9023H262.512Z" fill="#0066B7"/>
<path d="M212.889 60.209H203.602L203.66 53.3535H212.889C215.193 53.3535 217.137 52.8359 218.719 51.8008C220.301 50.7461 221.492 49.2129 222.293 47.2012C223.113 45.1895 223.523 42.7578 223.523 39.9062V37.8262C223.523 35.6387 223.289 33.7148 222.82 32.0547C222.371 30.3945 221.697 28.998 220.799 27.8652C219.9 26.7324 218.797 25.8828 217.488 25.3164C216.18 24.7305 214.676 24.4375 212.977 24.4375H203.426V17.5527H212.977C215.828 17.5527 218.436 18.041 220.799 19.0176C223.182 19.9746 225.242 21.3516 226.98 23.1484C228.719 24.9453 230.057 27.0938 230.994 29.5938C231.951 32.0742 232.43 34.8379 232.43 37.8848V39.9062C232.43 42.9336 231.951 45.6973 230.994 48.1973C230.057 50.6973 228.719 52.8457 226.98 54.6426C225.262 56.4199 223.201 57.7969 220.799 58.7734C218.416 59.7305 215.779 60.209 212.889 60.209ZM208.582 17.5527V60.209H199.793V17.5527H208.582Z" fill="#0066B7"/>
<path d="M172.436 56.6348L180.844 28.5098H189.896L177.152 64.9844C176.879 65.7852 176.508 66.6445 176.039 67.5625C175.59 68.4805 174.975 69.3496 174.193 70.1699C173.432 71.0098 172.465 71.6934 171.293 72.2207C170.141 72.748 168.725 73.0117 167.045 73.0117C166.244 73.0117 165.59 72.9629 165.082 72.8652C164.574 72.7676 163.969 72.6309 163.266 72.4551V66.2734C163.48 66.2734 163.705 66.2734 163.939 66.2734C164.174 66.293 164.398 66.3027 164.613 66.3027C165.727 66.3027 166.635 66.1758 167.338 65.9219C168.041 65.668 168.607 65.2773 169.037 64.75C169.467 64.2422 169.809 63.5781 170.062 62.7578L172.436 56.6348ZM168.92 28.5098L175.805 51.4785L177.006 60.4141L171.264 61.0293L159.867 28.5098H168.92Z" fill="#0066B7"/>
<path d="M109.014 17.5527H116.455L127.412 48.8711L138.369 17.5527H145.811L130.4 60.209H124.424L109.014 17.5527ZM105 17.5527H112.412L113.76 48.0801V60.209H105V17.5527ZM142.412 17.5527H149.854V60.209H141.064V48.0801L142.412 17.5527Z" fill="#0066B7"/>
<path d="M52.5 73C72.6584 73 89 56.6584 89 36.5C89 16.3416 72.6584 0 52.5 0C32.3416 0 16 16.3416 16 36.5C16 56.6584 32.3416 73 52.5 73Z" fill="#0066B7"/>
<path fill-rule="evenodd" clip-rule="evenodd" d="M40.4861 31.2312C40.2796 36.3968 38.621 33.6834 37.201 33.849C41.6592 37.3157 41.8846 31.7693 42.0352 28.5614C42.2289 29.7411 43.778 31.9141 45.779 32.2246C47.3797 32.4729 49.286 30.9207 50.0391 30.1136L48.9418 32.8454C48.8494 33.0897 48.7534 33.333 48.6544 33.5746C48.5952 33.5562 48.5401 33.5409 48.4899 33.5284C46.3212 32.9324 44.7462 35.8049 44.2298 37.3157C43.6489 38.9093 42.9905 42.0468 45.0044 41.8481C47.0183 41.6494 49.2 37.295 50.0391 35.1427L50.2345 34.653C50.7844 35.0463 51.2254 35.4852 51.4591 35.7635C51.1589 35.2246 50.7456 34.7925 50.3132 34.4558L52.8146 28.1889L55.3319 20.9247C55.504 20.5728 55.6546 19.7947 54.8801 19.4967C54.1055 19.1986 53.6537 19.6208 53.5246 19.8692L50.6845 25.457C48.7739 29.4306 46.8332 30.424 46.1017 30.424C45.1722 30.424 44.4665 29.1823 44.2298 28.5614C43.6102 26.4256 42.7237 25.1052 42.358 24.712C41.1187 24.0166 40.7658 24.919 40.7443 25.457L40.4861 31.2312ZM48.4899 33.8388C48.5068 33.8421 48.5236 33.8455 48.5404 33.849C47.323 36.7397 45.7186 39.3368 45.0044 40.358V40.1717V38.6196C45.1593 34.497 47.3926 33.7147 48.4899 33.8388Z" fill="white"/>
<path d="M60.133 45.0797C59.7628 45.0797 59.4468 44.9842 59.185 44.7931C58.9141 44.6021 58.7787 44.3459 58.7787 44.0245C58.7787 43.7727 58.8599 43.5555 59.0224 43.3732C59.1759 43.1995 59.3701 43.1126 59.6048 43.1126C59.7132 43.1126 59.7899 43.13 59.8351 43.1647C59.8802 43.1995 59.9163 43.2385 59.9434 43.282C60.0156 43.3949 60.0969 43.4904 60.1872 43.5686C60.2865 43.6554 60.4174 43.6988 60.5799 43.6988C60.7966 43.6988 61.0043 43.625 61.2029 43.4774C61.4106 43.3297 61.6002 43.1604 61.7718 42.9693C61.9253 42.8043 62.1104 42.5655 62.3271 42.2528C62.5438 41.9488 62.7605 41.6014 62.9771 41.2106C62.7785 41.3756 62.5934 41.4929 62.4219 41.5623C62.2503 41.6405 62.0878 41.6796 61.9343 41.6796C61.7447 41.6796 61.5596 41.6145 61.379 41.4842C61.1984 41.3452 61.0856 41.089 61.0404 40.7156C61.0133 40.429 60.9592 40.112 60.8779 39.7646C60.8057 39.4172 60.7109 39.0828 60.5935 38.7614C60.4851 38.4314 60.3497 38.1535 60.1872 37.9277C60.124 37.8235 60.0517 37.7453 59.9705 37.6932C59.8892 37.6411 59.7718 37.6063 59.6184 37.589C59.51 37.5803 59.4378 37.5499 59.4017 37.4978C59.3746 37.4457 59.361 37.3632 59.361 37.2503C59.361 36.9376 59.4513 36.6857 59.6319 36.4947C59.8125 36.3036 60.0563 36.2081 60.3632 36.2081C60.7334 36.2081 60.9998 36.347 61.1623 36.6249C61.3248 36.8942 61.4648 37.2242 61.5822 37.615C61.6273 37.7714 61.6725 37.9798 61.7176 38.2403C61.7718 38.4922 61.8169 38.7658 61.853 39.0611C61.8982 39.3564 61.9298 39.6386 61.9478 39.9079C61.9569 40.0989 62.0697 40.1945 62.2864 40.1945C62.5754 40.1945 62.8507 40.1076 63.1126 39.9339C63.3744 39.7602 63.5866 39.5344 63.7491 39.2565C63.9207 38.9786 64.0065 38.6876 64.0065 38.3836C64.0065 38.2099 63.9839 38.0536 63.9387 37.9147C63.8936 37.7757 63.8168 37.6541 63.7085 37.5499C63.6182 37.4457 63.546 37.3632 63.4918 37.3024C63.4376 37.2329 63.4105 37.1547 63.4105 37.0679C63.4105 36.9202 63.4828 36.7813 63.6272 36.651C63.7717 36.5207 63.9433 36.4122 64.1419 36.3253C64.3496 36.2385 64.5301 36.195 64.6836 36.195C64.9545 36.195 65.1351 36.321 65.2254 36.5728C65.3157 36.816 65.3382 37.0852 65.2931 37.3805C65.2389 37.7887 65.1306 38.2707 64.968 38.8266C64.8055 39.3824 64.5933 39.9643 64.3315 40.5723C64.0787 41.1802 63.7852 41.7664 63.4512 42.331C63.1261 42.9042 62.7785 43.4036 62.4083 43.8291C62.0923 44.2026 61.7402 44.5022 61.3519 44.728C60.9637 44.9625 60.5574 45.0797 60.133 45.0797Z" fill="white"/>
<path d="M55.7786 41.6275C55.6341 41.6275 55.5167 41.6014 55.4264 41.5493C55.3452 41.5059 55.3181 41.4277 55.3452 41.3148C55.4445 40.9414 55.5258 40.5636 55.589 40.1815C55.6612 39.7906 55.6973 39.4172 55.6973 39.0611C55.6973 38.6008 55.6657 38.2664 55.6025 38.058C55.5483 37.8409 55.4716 37.6932 55.3723 37.615C55.273 37.5282 55.1511 37.4631 55.0066 37.4196C54.9434 37.3936 54.8847 37.3588 54.8305 37.3154C54.7854 37.272 54.7628 37.2112 54.7628 37.133C54.7628 37.0114 54.8125 36.8768 54.9118 36.7292C55.0111 36.5815 55.1511 36.4556 55.3316 36.3514C55.5122 36.2385 55.7199 36.182 55.9546 36.182C56.2616 36.182 56.4738 36.2862 56.5912 36.4947C56.7176 36.6944 56.7808 36.9593 56.7808 37.2894C56.9433 36.942 57.142 36.6684 57.3767 36.4686C57.6205 36.2602 57.923 36.156 58.2841 36.156C58.5279 36.156 58.7311 36.2081 58.8936 36.3123C59.0561 36.4165 59.1374 36.5859 59.1374 36.8204C59.1374 37.0549 59.0561 37.2763 58.8936 37.4848C58.7401 37.6845 58.5821 37.7844 58.4196 37.7844C58.3925 37.7844 58.3609 37.7801 58.3248 37.7714C58.2886 37.7627 58.257 37.741 58.23 37.7062C58.1126 37.5673 57.9681 37.4978 57.7966 37.4978C57.5347 37.4978 57.3045 37.6628 57.1058 37.9928C56.9072 38.3229 56.7989 38.7788 56.7808 39.3607C56.7898 39.5778 56.7943 39.7993 56.7943 40.0251C56.8034 40.2509 56.8079 40.4159 56.8079 40.5202C56.8079 40.8415 56.7131 41.1064 56.5235 41.3148C56.3429 41.5233 56.0946 41.6275 55.7786 41.6275Z" fill="white"/>
<path d="M52.7442 35.0097C52.4914 35.001 52.2882 34.9272 52.1347 34.7882C51.9812 34.6493 51.9045 34.4539 51.9045 34.202C51.9135 33.9328 52.0083 33.7156 52.1889 33.5506C52.3695 33.3769 52.5997 33.2944 52.8796 33.3031C53.1415 33.3118 53.3446 33.3856 53.4891 33.5246C53.6426 33.6635 53.7148 33.8589 53.7058 34.1108C53.6967 34.3713 53.6064 34.5885 53.4349 34.7622C53.2633 34.9272 53.0331 35.0097 52.7442 35.0097ZM52.7577 41.6146C52.4869 41.6146 52.2747 41.5451 52.1212 41.4062C51.9677 41.2585 51.8909 41.011 51.8909 40.6636C51.8909 40.4638 51.909 40.2684 51.9451 40.0774C51.9903 39.8863 52.0399 39.6996 52.0941 39.5172C52.1573 39.3261 52.207 39.1307 52.2431 38.9309C52.2882 38.7312 52.3108 38.5184 52.3108 38.2926C52.3108 38.1363 52.2882 37.9886 52.2431 37.8497C52.1979 37.702 52.0986 37.5935 51.9451 37.524C51.8277 37.4632 51.7239 37.4024 51.6336 37.3416C51.5523 37.2721 51.5117 37.1853 51.5117 37.0811C51.5117 36.9595 51.5704 36.8292 51.6878 36.6902C51.8052 36.5513 51.9587 36.434 52.1483 36.3385C52.3469 36.2343 52.5501 36.1822 52.7577 36.1822C52.9834 36.1822 53.146 36.2386 53.2453 36.3515C53.3536 36.4644 53.4259 36.6077 53.462 36.7814C53.4981 36.9551 53.5162 37.1332 53.5162 37.3155C53.5162 37.5935 53.4936 37.867 53.4484 38.1363C53.4033 38.3968 53.3582 38.64 53.313 38.8658C53.2769 39.0308 53.2498 39.1828 53.2317 39.3218C53.2137 39.4607 53.2047 39.591 53.2047 39.7126C53.2047 39.9297 53.2588 40.0947 53.3672 40.2076C53.4755 40.3119 53.629 40.4117 53.8277 40.5073C53.9089 40.5507 53.9496 40.6158 53.9496 40.7027C53.9496 40.7722 53.9134 40.8807 53.8412 41.0284C53.769 41.176 53.6426 41.3106 53.462 41.4322C53.2904 41.5538 53.0557 41.6146 52.7577 41.6146Z" fill="white"/>
<path d="M37.0608 41.9141C36.7267 41.9141 36.4198 41.8837 36.1399 41.8229C35.86 41.7621 35.6297 41.6492 35.4491 41.4842C35.3137 41.3626 35.2234 41.228 35.1783 41.0803C35.1331 40.924 35.1105 40.7546 35.1105 40.5723C35.1105 40.277 35.1376 39.9817 35.1918 39.6864C35.2731 39.174 35.3453 38.6225 35.4085 38.0319C35.4717 37.4413 35.5033 36.8942 35.5033 36.3905C35.5033 36.2341 35.4943 36.0561 35.4762 35.8563C35.4672 35.6566 35.4491 35.4698 35.4221 35.2961C35.3588 35.3222 35.2956 35.3483 35.2324 35.3743C35.1783 35.3917 35.1286 35.4004 35.0835 35.4004C35.0022 35.4004 34.948 35.3613 34.9209 35.2831C34.8939 35.205 34.8803 35.1181 34.8803 35.0226C34.8803 34.7707 34.939 34.5579 35.0564 34.3842C35.1828 34.2018 35.3859 34.0412 35.6658 33.9022C35.9638 33.7459 36.352 33.6113 36.8306 33.4984C37.3181 33.3768 37.8102 33.316 38.3068 33.316C39.4354 33.316 40.3203 33.6373 40.9613 34.28C41.6114 34.914 41.9365 35.8172 41.9365 36.9897C41.9365 37.6585 41.8281 38.2925 41.6114 38.8917C41.4038 39.4823 41.0923 40.0077 40.6769 40.468C40.2616 40.9197 39.7515 41.2757 39.1465 41.5363C38.5416 41.7882 37.8463 41.9141 37.0608 41.9141ZM37.4942 40.455C37.9005 40.455 38.3068 40.3942 38.7131 40.2726C39.1194 40.151 39.4851 39.9687 39.8101 39.7255C40.1442 39.4823 40.4106 39.174 40.6092 38.8005C40.8079 38.4184 40.9072 37.9624 40.9072 37.4326C40.9072 36.8334 40.7853 36.3383 40.5415 35.9475C40.2977 35.5567 39.9727 35.2658 39.5664 35.0747C39.1601 34.8836 38.7086 34.7881 38.212 34.7881C37.9411 34.7881 37.6703 34.8098 37.3994 34.8532C37.1376 34.8966 36.9299 34.9401 36.7764 34.9835C36.7674 35.383 36.7403 35.7738 36.6951 36.156C36.659 36.5294 36.6139 36.8942 36.5597 37.2503C36.5055 37.6237 36.4604 37.9885 36.4243 38.3446C36.3972 38.7007 36.3836 39.0524 36.3836 39.3998C36.3836 39.834 36.4739 40.1206 36.6545 40.2596C36.8441 40.3899 37.124 40.455 37.4942 40.455Z" fill="white"/>
<path d="M60.3456 12.4599C60.6548 12.6644 60.9598 12.8944 61.2569 13.1473C73.309 22.423 78.3217 33.7629 77.2645 42.1102C76.7228 44.5073 74.601 46.1487 73.6078 46.6698C71.7659 54.3821 67.6938 58.2208 65.888 59.1762C61.7707 61.8859 59.8385 60.3052 59.3871 59.1762C59.4322 56.8312 58.6557 53.0272 55.1886 56.5707C51.7215 60.1141 46.8819 61 44.8955 61C34.7108 60.3747 34.151 56.4838 35.1442 54.6166C36.3631 53.8783 38.2321 52.1413 35.9568 51.0992C33.6815 50.057 30.2234 47.1909 28.7787 45.8882C26.4763 44.1946 29.7268 39.2442 32.7064 42.7616C35.09 45.5755 38.8461 47.8423 40.4262 48.6239C42.864 49.7964 48.8231 50.1872 47.0625 47.0606C45.654 44.5594 48.1911 44.8894 49.6358 45.3671C57.6535 48.5979 63.8113 46.4527 65.888 44.9763C69.5447 41.9799 68.4612 38.5928 66.2943 37.0295C64.5607 35.7789 66.1137 33.3818 67.1069 32.3396C68.7321 28.4314 66.4297 26.7379 64.3982 27.1287C62.773 27.4413 62.9987 26.3905 63.3147 25.8259C66.6831 21.1564 64.4287 15.848 61.2569 13.1473C60.9574 12.9169 60.6537 12.6877 60.3456 12.4599Z" fill="#84C0EF"/>
<path d="M63.6942 24.5485C67.378 19.4418 61.0758 13.3884 57.4642 11C76.2084 14.335 78.7275 32.2781 77.644 40.8328C77.1023 43.2299 74.9805 44.8713 73.9873 45.3924C72.1454 53.1047 68.0733 56.9434 66.2675 57.8988C62.1502 60.6085 60.218 59.0278 59.7666 57.8988C59.8117 55.5538 59.0352 51.7498 55.5681 55.2933C52.1009 58.8367 47.2614 59.7226 45.275 59.7226C35.0903 59.0973 34.5305 55.2064 35.5237 53.3392C36.7426 52.6009 38.6116 50.8639 36.3363 49.8218C34.061 48.7796 30.6029 45.9135 29.1582 44.6108C26.8558 42.9172 30.1063 37.9668 33.0859 41.4842C35.4695 44.2981 39.2256 46.5649 40.8057 47.3465C43.2435 48.519 49.2026 48.9098 47.442 45.7832C46.0335 43.282 48.5706 43.612 50.0152 44.0897C58.033 47.3205 64.1908 45.1753 66.2675 43.6989C69.9242 40.7025 68.8407 37.3154 66.6738 35.7521C64.9402 34.5015 66.4932 32.1044 67.4864 31.0622C69.1116 27.154 66.8092 25.4605 64.7777 25.8513C63.1525 26.1639 63.3782 25.1131 63.6942 24.5485Z" fill="white"/>
<path d="M53.5146 57.101C51.902 58.1959 48.0778 60.4951 42.6141 59.4732C41.9185 58.135 39.9582 53.9115 37.6817 53.1816C37.4287 53.1512 36.9418 52.9444 37.0177 52.3604C37.1125 51.6305 38.9148 50.9918 40.053 53.1816C40.1479 53.2728 40.3945 53.3823 40.6222 53.0903C40.9067 52.7254 41.9502 52.8166 42.6141 54.5502C43.1453 55.937 43.9737 56.4054 44.3215 56.4662C43.8156 55.6147 42.7659 53.7108 42.6141 52.9079C42.3612 52.4516 41.4569 51.4662 39.8633 51.1743C38.2698 50.8823 37.9346 50.0186 37.9662 49.6232C37.9662 49.2278 38.3836 48.4735 40.053 48.6195C41.7225 48.7655 42.8355 50.9918 43.1833 52.0867C43.3414 53.212 43.9042 55.6086 44.8907 56.1925L46.4083 55.1889C46.6613 54.976 47.3 54.6597 47.8312 55.0976C48.4952 55.6451 50.2026 56.01 51.0563 54.9151C51.246 53.6986 52.0048 50.9371 53.5225 49.6232V47.7984C53.7122 47.5551 54.2434 47.1414 54.8505 47.4334C54.7872 46.9468 54.9833 45.9918 56.2733 46.0648C57.5633 46.1378 56.1784 47.7984 55.3247 48.6195C54.471 49.8361 52.9075 53.2324 53.5146 57.101C53.6094 55.3066 54.8125 51.7035 57.6961 51.6305C58.202 51.6305 59.2518 51.9225 59.4035 53.0903C59.4035 53.5161 59.0241 54.3495 57.5064 54.2765C56.5895 54.3981 53.894 54.9842 53.5146 57.101Z" fill="#0066B7"/>
<path d="M73.1157 42.3084C73.3161 40.1086 71.9681 38.535 71.2691 38.0232C70.8517 38.0232 70.1006 37.3273 69.7771 36.9794C69.4266 36.6182 68.8729 36.5345 68.6399 36.5379C68.3478 36.5379 68.1078 36.3305 68.0243 36.2268C68.0577 36.1706 68.0104 36.016 67.9826 35.9458C67.9325 35.8093 67.9339 35.628 67.9409 35.5544C67.9743 35.3296 68.2121 35.2868 68.3269 35.2935C68.6858 35.2854 69.1164 34.8552 69.2868 34.6411C69.679 34.1353 70.1875 33.9754 70.3927 33.9587H70.5909C70.8497 33.9667 71.0604 34.1226 71.1334 34.1996C71.1585 34.2237 71.2204 34.2096 71.2482 34.1996C71.6071 34.031 72.2115 34.0624 72.4689 34.0992C72.4522 34.1715 72.3506 34.3367 72.302 34.4103C72.3854 34.4672 72.7109 34.5127 73.3453 34.2397C73.9796 33.9667 74.5555 34.0122 74.7642 34.0691C77.2514 35.2378 77.9831 34.0767 77.9997 33.4755V33.434C78.0001 33.4475 78.0001 33.4613 77.9997 33.4755V35.8063L77.9048 37.8316L77.8204 39.7004V40.6425L77.5669 41.1629C77.6233 40.8379 77.2515 40.4217 76.4752 40.1808C75.699 39.94 75.4145 40.3882 75.3693 40.6425V42.0876C75.3345 42.1913 75.2233 42.4047 75.0563 42.4288C74.8894 42.4529 74.792 42.2515 74.7642 42.1478L74.4512 40.9235C74.4547 40.8632 74.4136 40.7408 74.2217 40.7328C74.0297 40.7247 73.9608 40.8565 73.9504 40.9235L73.7626 42.0876C73.4955 42.497 73.2201 42.4054 73.1157 42.3084Z" fill="#0066B7"/>
</svg>
